<svg xmlns="http://www.w3.org/2000/svg" viewBox="0 0 320 400" fill="none">
  <rect width="320" height="400" fill="#f7f2e8"/>
  <path d="M40 380h240" stroke="#1a1510" stroke-width="2.5" stroke-linecap="round"/>
  <ellipse cx="160" cy="210" rx="70" ry="86" fill="#f8f8fc" stroke="#1a1510" stroke-width="2.2"/>
  <path d="M90 194c0-38 30-68 70-68s70 32 70 68" fill="#d0cce0" stroke="#1a1510" stroke-width="1.5"/>
  <path d="M124 198h24M172 198h24" stroke="#1a1510" stroke-width="3" stroke-linecap="round"/>
  <path d="M142 226c10 8 24 8 34 0" stroke="#1a1510" stroke-width="2" stroke-linecap="round"/>
  <path d="M104 274h112l-8 86H112l-8-86z" fill="#5c3d7a" stroke="#1a1510" stroke-width="2"/>
  <path d="M88 120l-20-40 28 12M232 120l20-40-28 12" stroke="#c23a2b" stroke-width="2.5"/>
  <circle cx="68" cy="80" r="12" fill="#c23a2b" stroke="#1a1510" stroke-width="1.5"/>
  <circle cx="252" cy="80" r="12" fill="#c23a2b" stroke="#1a1510" stroke-width="1.5"/>
  <path d="M200 100 Q240 60 280 100" stroke="#2a7a6e" stroke-width="2" fill="none" stroke-dasharray="5 4"/>
</svg>
