<svg xmlns="http://www.w3.org/2000/svg" viewBox="0 0 320 400" fill="none">
  <rect width="320" height="400" fill="#f7f2e8"/>
  <path d="M40 380h240" stroke="#1a1510" stroke-width="2.5" stroke-linecap="round"/>
  <path d="M72 120l48-56 88 8-20 72H96l-24-76z" fill="#1a1510" stroke="#1a1510" stroke-width="2"/>
  <ellipse cx="160" cy="210" rx="70" ry="86" fill="#fff8e8" stroke="#1a1510" stroke-width="2.2"/>
  <path d="M90 200c0-40 32-72 70-72s70 32 70 72" fill="#c9a227" stroke="#1a1510" stroke-width="1.5"/>
  <ellipse cx="138" cy="200" rx="9" ry="11" fill="#fff"/>
  <ellipse cx="182" cy="200" rx="9" ry="11" fill="#fff"/>
  <circle cx="140" cy="202" r="4.5" fill="#1a1510"/>
  <circle cx="184" cy="202" r="4.5" fill="#1a1510"/>
  <path d="M146 228c10 8 24 8 34 0" stroke="#1a1510" stroke-width="2" stroke-linecap="round"/>
  <path d="M108 268h104l-8 88H116l-8-88z" fill="#1a1510" stroke="#1a1510" stroke-width="2"/>
  <path d="M200 300l48 40-16 20-52-32" fill="#fff" stroke="#1a1510" stroke-width="2"/>
  <circle cx="248" cy="348" r="6" fill="#c9a227"/>
</svg>
