<svg xmlns="http://www.w3.org/2000/svg" viewBox="0 0 320 400" fill="none">
  <rect width="320" height="400" fill="#f7f2e8"/>
  <path d="M40 380h240" stroke="#1a1510" stroke-width="2.5" stroke-linecap="round"/>
  <ellipse cx="160" cy="200" rx="72" ry="88" fill="#fff5f0" stroke="#1a1510" stroke-width="2.2"/>
  <path d="M88 140c12-28 44-48 72-48s60 20 72 48" stroke="#1a1510" stroke-width="2" fill="#1a1510"/>
  <circle cx="108" cy="118" r="14" fill="#1a1510"/>
  <circle cx="192" cy="118" r="14" fill="#1a1510"/>
  <path d="M96 200c0-36 28-64 64-64s64 28 64 64" fill="#1a1510"/>
  <ellipse cx="140" cy="192" rx="8" ry="10" fill="#fff"/>
  <ellipse cx="180" cy="192" rx="8" ry="10" fill="#fff"/>
  <circle cx="142" cy="194" r="4" fill="#1a1510"/>
  <circle cx="182" cy="194" r="4" fill="#1a1510"/>
  <path d="M148 218c8 6 20 6 28 0" stroke="#c23a2b" stroke-width="2" stroke-linecap="round"/>
  <path d="M88 168l-20-32 28 8M232 168l20-32-28 8" stroke="#c23a2b" stroke-width="2.5" stroke-linecap="round"/>
  <path d="M120 88h80l-8 24H128l-8-24z" fill="#c23a2b" stroke="#1a1510" stroke-width="1.8"/>
  <path d="M100 260h120l-12 80H112l-12-80z" fill="#fff" stroke="#1a1510" stroke-width="2"/>
  <path d="M88 280h144" stroke="#c23a2b" stroke-width="3"/>
</svg>
