<svg xmlns="http://www.w3.org/2000/svg" viewBox="0 0 320 400" fill="none">
  <rect width="320" height="400" fill="#f7f2e8"/>
  <path d="M40 380h240" stroke="#1a1510" stroke-width="2.5" stroke-linecap="round"/>
  <path d="M100 100c0-24 24-44 60-44s60 20 60 44v20H100v-20z" fill="#c23a2b" stroke="#1a1510" stroke-width="2"/>
  <ellipse cx="160" cy="210" rx="68" ry="84" fill="#fff5f5" stroke="#1a1510" stroke-width="2.2"/>
  <path d="M92 195c0-38 30-68 68-68s68 30 68 68" fill="#e8e0e8" stroke="#1a1510" stroke-width="1.5"/>
  <ellipse cx="136" cy="200" rx="8" ry="10" fill="#c23a2b"/>
  <ellipse cx="176" cy="200" rx="8" ry="10" fill="#c23a2b"/>
  <circle cx="136" cy="202" r="3" fill="#1a1510"/>
  <circle cx="176" cy="202" r="3" fill="#1a1510"/>
  <path d="M142 224c8 6 20 6 28 0" stroke="#1a1510" stroke-width="2" stroke-linecap="round"/>
  <path d="M108 270h104l-6 90H114l-6-90z" fill="#c23a2b" stroke="#1a1510" stroke-width="2"/>
  <path d="M88 120l-16-28 24 4M232 120l16-28-24 4" stroke="#1a1510" stroke-width="2" stroke-linecap="round"/>
  <path d="M200 88l24-20 8 28" stroke="#c23a2b" stroke-width="2" fill="none"/>
</svg>
