<svg xmlns="http://www.w3.org/2000/svg" viewBox="0 0 320 400" fill="none">
  <rect width="320" height="400" fill="#f7f2e8"/>
  <path d="M40 380h240" stroke="#1a1510" stroke-width="2.5" stroke-linecap="round"/>
  <ellipse cx="160" cy="205" rx="70" ry="86" fill="#f5f5f8" stroke="#1a1510" stroke-width="2.2"/>
  <path d="M88 188c0-40 32-72 72-72s72 32 72 72" fill="#d8d8e0" stroke="#1a1510" stroke-width="1.5"/>
  <ellipse cx="136" cy="198" rx="8" ry="10" fill="#5c3d7a"/>
  <ellipse cx="176" cy="198" rx="8" ry="10" fill="#5c3d7a"/>
  <circle cx="136" cy="200" r="3" fill="#1a1510"/>
  <circle cx="176" cy="200" r="3" fill="#1a1510"/>
  <path d="M142 222c8 6 20 6 28 0" stroke="#1a1510" stroke-width="2" stroke-linecap="round"/>
  <path d="M104 268h112l-4 92H108l-4-92z" fill="#1a1510" stroke="#1a1510" stroke-width="2"/>
  <path d="M104 268h16v24h-16M200 268h16v24h-16" stroke="#fff" stroke-width="2"/>
  <path d="M56 200l32-48M224 200l32-48" stroke="#c9a227" stroke-width="2.5" stroke-linecap="round"/>
  <circle cx="56" cy="200" r="8" fill="#c9a227" stroke="#1a1510" stroke-width="1.5"/>
  <circle cx="224" cy="200" r="8" fill="#c9a227" stroke="#1a1510" stroke-width="1.5"/>
</svg>
