<svg xmlns="http://www.w3.org/2000/svg" viewBox="0 0 320 400" fill="none">
  <rect width="320" height="400" fill="#f7f2e8"/>
  <path d="M40 380h240" stroke="#1a1510" stroke-width="2.5" stroke-linecap="round"/>
  <ellipse cx="160" cy="208" rx="68" ry="84" fill="#fff8f5" stroke="#1a1510" stroke-width="2.2"/>
  <path d="M96 192c0-36 28-64 64-64s64 28 64 64" fill="#e8e4f0" stroke="#1a1510" stroke-width="1.5"/>
  <ellipse cx="138" cy="200" rx="8" ry="10" fill="#5c3d7a"/>
  <ellipse cx="178" cy="200" rx="8" ry="10" fill="#5c3d7a"/>
  <circle cx="140" cy="202" r="3.5" fill="#1a1510"/>
  <circle cx="180" cy="202" r="3.5" fill="#1a1510"/>
  <path d="M146 224c8 6 20 6 28 0" stroke="#1a1510" stroke-width="2" stroke-linecap="round"/>
  <path d="M108 272h104l-8 88H116l-8-88z" fill="#1a1510" stroke="#1a1510" stroke-width="2"/>
  <path d="M240 120l48 200-12 8-40-180" fill="#e8e8f0" stroke="#1a1510" stroke-width="2"/>
  <path d="M72 140l-40 180 12 8 40-180" fill="#c23a2b" stroke="#1a1510" stroke-width="2"/>
</svg>
