<svg xmlns="http://www.w3.org/2000/svg" viewBox="0 0 320 400" fill="none">
  <rect width="320" height="400" fill="#f7f2e8"/>
  <path d="M40 380h240" stroke="#1a1510" stroke-width="2.5" stroke-linecap="round"/>
  <circle cx="80" cy="100" r="16" fill="#ffb8c8" stroke="#1a1510" stroke-width="1.5" opacity="0.7"/>
  <circle cx="240" cy="120" r="12" fill="#ffb8c8" stroke="#1a1510" stroke-width="1.5" opacity="0.6"/>
  <ellipse cx="160" cy="212" rx="74" ry="90" fill="#fff8fb" stroke="#1a1510" stroke-width="2.2"/>
  <path d="M86 198c0-42 34-76 74-76s74 34 74 76" fill="#1a1510" stroke="#1a1510" stroke-width="1.5"/>
  <ellipse cx="134" cy="204" rx="8" ry="10" fill="#ffb8c8"/>
  <ellipse cx="174" cy="204" rx="8" ry="10" fill="#ffb8c8"/>
  <circle cx="134" cy="206" r="3" fill="#1a1510"/>
  <circle cx="174" cy="206" r="3" fill="#1a1510"/>
  <path d="M140 230c10 8 24 8 34 0" stroke="#1a1510" stroke-width="2" stroke-linecap="round"/>
  <path d="M96 280h128l-12 88H108l-12-88z" fill="#ffb8c8" stroke="#1a1510" stroke-width="2"/>
  <path d="M120 88h80c0 20-16 36-40 36s-40-16-40-36z" fill="#fff" stroke="#1a1510" stroke-width="2"/>
</svg>
